<svg xmlns="http://www.w3.org/2000/svg" width="100%" height="100%" viewBox="0 0 419 411">
  <g transform="matrix(1 0 0 1 210.7622 205.4371)">
    <g transform="matrix(-0.7107 0 0 -0.9043 145.3174 2.2969)">
      <path transform="translate(-95, -300)" d="M 5 300 L 185 250 C 171.5623 263.1662 163.9898 281.1872 163.9898 300 C 163.9898 318.8128 171.5623 336.8338 185 350 Z" fill="rgb(0,113,181)" />
    </g>
    
    <g transform="matrix(0.7107 0 0 0.7107 0.3665 -78.7497)">
      <path transform="translate(-300, -182.5)" d="M 300 5 L 355 170 L 355 305 C 355 335.3757 330.3757 360 300 360 C 269.6243 360 245 335.3757 245 305 L 245 170 Z" fill="rgb(229,179,18)" />
    </g>
    
    <g transform="matrix(0.7107 0 0 0.9043 -145.3174 3.8654)">
      <path transform="translate(-95, -300)" d="M 5 300 L 185 250 C 171.5623 263.1662 163.9898 281.1872 163.9898 300 C 163.9898 318.8128 171.5623 336.8338 185 350 Z" fill="rgb(0,113,181)" />
    </g>
    
    <g transform="matrix(0 -0.7107 0.9043 0 0.5297 140.936)">
      <path transform="translate(-95, -300)" d="M 5 300 L 185 250 C 171.5623 263.1662 163.9898 281.1872 163.9898 300 C 163.9898 318.8128 171.5623 336.8338 185 350 Z" fill="rgb(0,113,181)" />
    </g>
  </g>
</svg>
